<?xml version="1.0" standalone="no"?>
<!DOCTYPE svg PUBLIC "-//W3C//DTD SVG 20010904//EN"
 "http://www.w3.org/TR/2001/REC-SVG-20010904/DTD/svg10.dtd">
<svg version="1.0" xmlns="http://www.w3.org/2000/svg"
 width="2560.000000pt" height="2560.000000pt" viewBox="0 0 2560.000000 2560.000000"
 preserveAspectRatio="xMidYMid meet">
<metadata>
Created by potrace 1.14, written by Peter Selinger 2001-2017
</metadata>
<g transform="translate(0.000000,2560.000000) scale(0.100000,-0.100000)"
fill="#000000" stroke="none">
<path d="M0 12800 l0 -12800 12800 0 12800 0 0 12800 0 12800 -12800 0 -12800
0 0 -12800z m11440 2238 c0 -12 -106 -892 -235 -1955 -129 -1064 -235 -1941
-235 -1949 0 -12 -37 -14 -236 -14 l-236 0 6 43 c3 23 109 899 236 1947 127
1048 233 1915 235 1928 l5 22 230 0 c230 0 230 0 230 -22z m6477 -39 c72 -9
162 -31 182 -43 4 -3 -3 -63 -16 -133 -17 -92 -29 -133 -43 -147 -18 -18 -39
-21 -187 -27 -189 -7 -240 -20 -338 -85 -104 -68 -186 -199 -230 -367 -25 -95
-69 -403 -59 -418 3 -5 155 -9 338 -9 l332 0 -23 -162 c-12 -90 -22 -166 -23
-170 0 -5 -148 -8 -330 -8 -228 0 -330 -3 -330 -11 0 -6 -61 -508 -135 -1117
l-134 -1107 -66 -284 c-71 -311 -92 -365 -161 -414 -46 -32 -122 -47 -241 -47
-55 0 -83 4 -83 11 0 6 79 666 175 1466 96 799 175 1464 175 1476 0 22 -6 24
-137 41 -141 18 -174 29 -207 65 -17 18 -18 31 -12 103 3 46 9 100 12 121 l7
37 188 0 c103 0 190 4 193 8 3 5 14 82 26 173 24 193 48 297 91 411 97 255
281 458 506 559 162 73 358 102 530 78z m-13501 -990 c65 -24 134 -83 169
-143 47 -82 50 -208 6 -294 -10 -19 -115 -132 -235 -252 l-217 -218 75 -75
c55 -55 77 -85 86 -116 28 -106 -66 -207 -175 -187 -28 6 -58 27 -121 89 l-85
81 -477 -477 -477 -476 -225 -105 -225 -104 -93 92 -93 92 105 229 105 229
475 475 476 476 -71 70 c-82 82 -99 109 -99 165 0 74 48 133 117 146 59 11
102 -10 178 -86 38 -38 74 -70 80 -70 5 0 107 97 225 215 190 190 223 218 275
240 75 31 146 32 221 4z m2539 -171 c183 -34 343 -127 466 -270 47 -55 57 -72
50 -86 -16 -30 -160 -191 -180 -202 -42 -22 -77 -11 -153 46 -79 61 -207 127
-278 143 -25 6 -90 11 -145 11 -117 0 -210 -22 -314 -75 -250 -126 -463 -432
-544 -785 -39 -168 -42 -198 -42 -415 1 -196 3 -229 23 -300 34 -121 76 -199
153 -280 119 -125 249 -171 454 -162 205 10 327 64 553 245 144 116 188 112
300 -26 28 -35 52 -70 52 -77 0 -7 -49 -60 -109 -118 -281 -271 -485 -369
-825 -397 -350 -29 -605 56 -808 268 -124 130 -202 287 -248 497 -27 127 -38
405 -21 550 65 555 349 1038 755 1285 170 103 324 150 566 174 63 6 183 -5
295 -26z m2275 22 c160 -20 319 -77 439 -158 68 -46 187 -168 236 -242 125
-189 183 -386 192 -660 15 -451 -116 -868 -378 -1200 -315 -400 -772 -583
-1229 -494 -82 16 -100 22 -205 67 -216 92 -400 293 -491 536 -61 163 -78 271
-79 496 0 323 50 556 176 824 119 251 306 478 509 618 246 168 552 247 830
213z m3980 0 c234 -29 415 -115 566 -272 196 -202 289 -444 301 -787 10 -278
-35 -535 -136 -784 -270 -662 -864 -1029 -1471 -911 -82 16 -100 22 -205 67
-102 44 -190 105 -276 194 -146 149 -233 330 -281 578 -20 105 -17 443 5 572
90 526 365 959 754 1186 218 127 500 186 743 157z m9502 -5 c205 -43 357 -176
433 -380 40 -105 56 -198 62 -345 5 -125 0 -207 -27 -430 -5 -47 -15 -125 -20
-174 -6 -49 -17 -145 -26 -215 -8 -69 -26 -223 -40 -341 -14 -118 -29 -249
-34 -290 -34 -287 -44 -366 -54 -455 l-11 -100 -229 -3 c-126 -1 -233 1 -237
5 -5 5 -2 60 6 123 19 149 31 255 50 415 8 72 19 166 25 210 5 44 16 141 25
215 8 74 20 171 25 215 78 646 82 695 70 810 -12 119 -30 179 -72 237 -42 57
-63 74 -127 98 -67 26 -180 28 -266 5 -278 -74 -583 -419 -749 -848 -38 -98
-46 -133 -60 -258 -9 -79 -27 -243 -41 -364 -14 -121 -30 -260 -35 -310 -6
-49 -17 -148 -25 -220 -8 -71 -19 -172 -25 -224 -6 -51 -13 -97 -16 -102 -6
-11 -461 -12 -467 -1 -3 4 1 54 8 112 8 58 25 204 39 325 15 121 31 254 36
295 5 41 21 172 35 290 31 262 52 440 65 540 6 41 17 134 25 205 20 172 33
284 45 375 6 41 21 174 35 295 14 121 28 231 31 243 l5 24 147 -4 c169 -4 194
-13 224 -72 19 -37 20 -52 14 -161 -3 -66 -11 -169 -17 -230 -6 -60 -9 -130
-7 -155 l3 -45 40 60 c70 105 182 240 268 321 259 246 596 366 869 309z
m-6572 -31 c30 -9 58 -19 62 -23 9 -8 -68 -431 -80 -443 -4 -4 -39 1 -77 12
-86 25 -229 27 -304 4 -175 -52 -333 -206 -456 -446 -97 -188 -197 -484 -214
-631 -11 -92 -37 -311 -52 -432 -5 -44 -14 -118 -20 -165 -5 -47 -17 -141 -25
-210 -8 -69 -19 -163 -24 -210 -6 -47 -13 -102 -16 -122 l-6 -38 -229 0 -229
0 0 23 c0 12 7 78 15 147 9 69 20 161 25 205 5 44 14 121 20 170 6 50 15 126
20 170 25 191 31 237 45 365 8 74 20 169 25 210 12 93 25 207 45 375 8 72 19
164 25 205 9 69 27 220 50 415 17 143 40 339 46 383 l5 42 148 0 c138 0 150
-2 182 -23 68 -45 74 -90 51 -375 -6 -84 -15 -191 -18 -237 -4 -49 -3 -85 2
-85 5 1 27 37 49 82 45 91 143 241 220 338 121 152 286 267 440 307 62 16 199
10 275 -13z m2635 -4 c3 -5 -1 -66 -10 -135 -8 -69 -22 -182 -30 -252 -8 -71
-20 -165 -25 -210 -18 -148 -29 -246 -45 -383 -8 -74 -20 -169 -25 -210 -5
-41 -17 -133 -25 -205 -8 -71 -20 -173 -27 -225 -7 -52 -13 -174 -13 -270 0
-190 9 -239 64 -328 64 -105 238 -150 402 -103 278 79 573 410 737 826 32 82
42 125 56 240 9 77 21 174 26 215 5 41 21 172 35 290 14 118 30 251 35 295 5
44 17 139 25 210 24 203 26 219 31 238 5 16 25 17 234 17 126 0 231 -4 234 -8
3 -5 -1 -58 -9 -118 -23 -178 -33 -258 -60 -484 -14 -118 -30 -251 -35 -295
-5 -44 -21 -174 -35 -290 -14 -115 -32 -264 -40 -330 -8 -66 -21 -176 -30
-245 -8 -69 -24 -201 -35 -295 -23 -188 -45 -372 -61 -510 -18 -152 3 -135
-165 -135 -125 0 -150 3 -184 20 -68 34 -82 88 -69 249 22 271 28 365 24 369
-2 2 -19 -17 -37 -44 -235 -338 -503 -543 -798 -609 -101 -23 -285 -24 -369
-2 -295 78 -461 354 -461 766 0 64 9 190 20 281 11 91 26 222 34 291 9 70 20
166 26 215 11 101 22 189 45 384 9 74 20 169 25 210 5 41 16 136 25 210 9 74
20 171 25 216 5 44 11 97 15 117 l7 37 229 0 c138 0 230 -4 234 -10z m-16446
-2194 c28 -46 68 -119 88 -162 64 -134 50 -230 -43 -294 -99 -67 -249 -10
-285 109 -15 50 -7 90 37 181 43 91 136 250 146 250 3 0 29 -38 57 -84z"/>
<path d="M3128 12743 l-467 -468 -75 -165 c-74 -163 -80 -190 -41 -190 7 0 82
33 168 73 l155 72 472 469 472 469 -103 103 c-57 57 -106 104 -109 104 -3 0
-215 -210 -472 -467z"/>
<path d="M8901 13475 c-293 -66 -545 -369 -652 -782 -57 -222 -75 -505 -44
-698 26 -163 86 -306 163 -388 45 -47 150 -109 220 -128 76 -22 215 -25 308
-8 77 14 189 66 261 122 295 228 468 654 466 1147 -1 174 -18 288 -58 395 -65
173 -162 274 -311 325 -80 28 -264 35 -353 15z"/>
<path d="M12884 13476 c-71 -16 -193 -71 -244 -110 -187 -141 -337 -386 -411
-673 -38 -146 -50 -238 -56 -414 -8 -251 18 -404 94 -551 48 -91 99 -147 180
-196 87 -52 166 -72 284 -72 160 1 269 35 393 124 299 214 481 656 478 1161 0
169 -18 285 -57 390 -65 173 -162 274 -311 325 -78 27 -264 35 -350 16z"/>
</g>
</svg>
